<svg xmlns="http://www.w3.org/2000/svg" viewBox="0 0 900 900" role="img" aria-label="Don Cepillo logo">
  <defs>
    <linearGradient id="sky" x1="0" x2="1" y1="0" y2="1">
      <stop offset="0%" stop-color="#4fc0f1"/>
      <stop offset="100%" stop-color="#1f4fa3"/>
    </linearGradient>
    <linearGradient id="greenOval" x1="0" x2="1">
      <stop offset="0%" stop-color="#43b649"/>
      <stop offset="100%" stop-color="#2d8f3d"/>
    </linearGradient>
    <linearGradient id="yellowBand" x1="0" x2="1">
      <stop offset="0%" stop-color="#f5e457"/>
      <stop offset="100%" stop-color="#ffe874"/>
    </linearGradient>
  </defs>

  <rect x="70" y="70" width="760" height="760" rx="180" fill="url(#sky)" />
  <circle cx="220" cy="170" r="34" fill="#8ce4ff" opacity="0.35"/>
  <circle cx="705" cy="205" r="42" fill="#8ce4ff" opacity="0.22"/>
  <circle cx="645" cy="122" r="22" fill="#8ce4ff" opacity="0.26"/>
  <circle cx="176" cy="708" r="26" fill="#8ce4ff" opacity="0.22"/>

  <ellipse cx="450" cy="450" rx="305" ry="235" fill="url(#greenOval)" stroke="#76d8ff" stroke-width="14"/>

  <g transform="translate(258 178)">
    <rect x="8" y="85" width="24" height="230" rx="12" fill="#d2b17a"/>
    <path d="M0 92 h146 v74 c0 23-16 42-39 46 l-34 5-23 73-23-73-28-5c-23-4-39-23-39-46z" fill="#f3e060" stroke="#23539e" stroke-width="8"/>
    <rect x="62" y="28" width="24" height="72" rx="10" fill="#f4d7dc"/>
  </g>

  <g transform="translate(412 146)">
    <rect x="72" y="58" width="18" height="208" rx="9" fill="#9c7b49"/>
    <rect x="0" y="58" width="160" height="110" rx="10" fill="#ffffff" opacity="0.18"/>
    <path d="M0 58 h160 l-16 22h-128z" fill="#ffffff" opacity="0.3"/>
  </g>

  <g transform="translate(540 178)">
    <rect x="42" y="92" width="24" height="208" rx="12" fill="#89693f"/>
    <rect x="0" y="32" width="110" height="170" rx="18" fill="#8c62c9"/>
    <line x1="22" y1="70" x2="90" y2="70" stroke="#b39ae5" stroke-width="6" opacity="0.45"/>
    <line x1="22" y1="96" x2="90" y2="96" stroke="#b39ae5" stroke-width="6" opacity="0.45"/>
  </g>

  <g transform="translate(604 362)">
    <path d="M0 55 h110" stroke="#191919" stroke-width="24" stroke-linecap="round"/>
    <path d="M94 48 l92 -92" stroke="#d5ad64" stroke-width="20" stroke-linecap="round"/>
    <circle cx="8" cy="55" r="34" fill="#262626"/>
  </g>

  <path d="M260 610 h380 l-42 72h-296z" fill="url(#yellowBand)" stroke="#28509d" stroke-width="10"/>

  <g transform="translate(0 20) rotate(-2 450 450)">
    <text x="475" y="510" text-anchor="middle" font-family="Arial Black, sans-serif" font-size="118" fill="#ea4a34" stroke="#f5e457" stroke-width="17" paint-order="stroke">
      DON
    </text>
    <text x="380" y="615" text-anchor="middle" font-family="Arial Black, sans-serif" font-size="126" fill="#ea4a34" stroke="#f5e457" stroke-width="17" paint-order="stroke">
      CEPILLO
    </text>
  </g>

  <text x="242" y="635" transform="rotate(-90 242 635)" font-family="Arial Black, sans-serif" font-size="34" fill="#ffffff">
    Productos De
  </text>
  <text x="270" y="635" transform="rotate(-90 270 635)" font-family="Arial Black, sans-serif" font-size="34" fill="#ffffff">
    Limpieza
  </text>
</svg>
